<svg width="128" height="128" viewBox="0 0 128 128" fill="none" xmlns="http://www.w3.org/2000/svg">
  <path
    d="M31 83C19.954 83 11 74.046 11 63C11 52.726 18.746 44.262 28.717 43.131C31.498 32.619 41.083 25 52.447 25C60.957 25 68.47 29.275 72.936 35.787C74.944 34.961 77.143 34.5 79.45 34.5C88.631 34.5 96.1 41.651 96.609 50.704C105.57 52.043 112.45 59.771 112.45 69.1C112.45 79.373 104.123 87.7 93.85 87.7H80.5V73.8H91.95C94.645 73.8 96.85 71.595 96.85 68.9C96.85 66.205 94.645 64 91.95 64H83.55L82.95 58.85C82.525 55.225 79.441 52.5 75.8 52.5C73.443 52.5 71.221 53.661 69.875 55.607L65.35 62.15L61.675 55.1C59.876 51.646 56.315 49.5 52.447 49.5C46.991 49.5 42.34 53.214 41.167 58.542L40.05 63.6H35.85C32.547 63.6 29.85 66.297 29.85 69.6C29.85 72.903 32.547 75.6 35.85 75.6H49.1V89.5H31V83Z"
    fill="#C5C5C5"
  />
  <circle cx="60.5" cy="63.5" r="8.5" fill="#C5C5C5"/>
  <path
    d="M60.5 74C51.9396 74 45 80.9396 45 89.5V95H76V89.5C76 80.9396 69.0604 74 60.5 74Z"
    fill="#C5C5C5"
  />
  <path
    d="M78.367 56.589L81.32 54.885L84.337 58.108L82.648 61.035C83.069 61.898 83.389 62.804 83.601 63.743L86.85 64.55V69.1L83.603 69.907C83.392 70.846 83.072 71.752 82.651 72.615L84.339 75.543L81.323 78.766L78.369 77.061C77.596 77.486 76.786 77.816 75.948 78.04L75.1 81.4H70.85L70.003 78.042C69.165 77.818 68.355 77.488 67.582 77.063L64.628 78.768L61.611 75.545L63.3 72.617C62.879 71.754 62.559 70.847 62.347 69.908L59.1 69.1V64.55L62.349 63.743C62.561 62.804 62.881 61.897 63.303 61.034L61.614 58.106L64.631 54.883L67.584 56.588C68.356 56.163 69.166 55.833 70.004 55.609L70.85 52.25H75.1L75.947 55.608C76.785 55.832 77.595 56.162 78.367 56.589ZM72.975 61.75C69.816 61.75 67.255 64.311 67.255 67.47C67.255 70.629 69.816 73.19 72.975 73.19C76.134 73.19 78.695 70.629 78.695 67.47C78.695 64.311 76.134 61.75 72.975 61.75Z"
    fill="#C5C5C5"
  />
</svg>
